<?xml version="1.0" encoding="UTF-8" standalone="no"?><!DOCTYPE svg PUBLIC "-//W3C//DTD SVG 1.1//EN" "http://www.w3.org/Graphics/SVG/1.1/DTD/svg11.dtd"><svg width="100%" height="100%" viewBox="0 0 106 108" version="1.1" xmlns="http://www.w3.org/2000/svg" xmlns:xlink="http://www.w3.org/1999/xlink" xml:space="preserve" xmlns:serif="http://www.serif.com/" style="fill-rule:evenodd;clip-rule:evenodd;stroke-linejoin:round;stroke-miterlimit:1.41421;"><g><path d="M18.7,19.7l34.2,-19.7l34.2,19.7l0,39.5l-34.2,19.7l-34.2,-19.7l0,-39.5Z" style="fill:#222221;fill-rule:nonzero;"/><path d="M64.8,36.5l0,1.3c0,0 -2.6,-1.2 -3,-1.4c0,0 -0.1,0 -0.1,-0.1c0,-0.6 -0.3,-1 -0.6,-1c-0.2,0 -0.4,0.2 -0.5,0.5l-0.1,0c-0.4,-0.2 -0.8,-0.3 -1.2,-0.5l0,-0.1c0,-0.7 -0.3,-1.3 -0.7,-1.3c-0.3,0 -0.6,0.4 -0.7,0.9c-0.4,-0.2 -0.8,-0.4 -1.3,-0.5c-0.1,0 -0.1,0 -0.2,-0.1c0,-0.1 0,-0.1 0,-0.2c0,-0.9 -0.4,-1.6 -0.9,-1.6c-0.4,0 -0.8,0.5 -0.9,1.1c-0.2,-0.1 -0.5,-0.1 -0.7,-0.2c-0.3,-0.1 -0.9,-0.4 -0.9,-0.4l0,-3.9l11.8,7.5Zm-12,-7.5l0,3.7l-9.1,-3.3l9.1,-0.4Zm-14.8,20.9c-0.6,-1 -0.9,-5.8 -0.9,-5.8c0,0 -0.1,2.3 -0.2,3.9c0,-0.3 -2,-3.2 -2.4,-15c0.1,-0.2 3.5,-4.5 3.5,-4.5c0,0.2 0,20.9 0,21.4Zm0.2,0.2l0,0Zm32.6,-2.3l-0.4,-1.3c0,0 0.4,3.5 -0.2,3.5c-0.6,0 -0.6,-2.6 -0.6,-2.6c0,0 -0.2,2.5 -0.5,2.5c-0.2,0 -0.4,-2.7 -0.4,-2.7c0,0 -0.7,2.4 -1.1,2.5c-0.4,0 -0.4,-1.7 -0.4,-1.7c0,0 -0.1,1.9 -0.6,2c-0.5,0 -0.6,-2.3 -0.6,-2.3c0,0 -0.3,1.7 -0.6,1.7c-0.3,0 -1.5,-3.5 -1.5,-3.5c0,0 0.6,4.3 0.1,4.3c-0.5,0 -0.7,-2.8 -0.7,-2.8c0,0 -0.1,2.4 -0.4,2.4c-0.3,0 -0.9,-3.2 -0.9,-3.2c0,0 -0.2,3.4 -0.5,3.4c-0.3,0 -0.6,-1.1 -0.6,-1.1c0,0 0,1.2 -0.3,1.2c-0.3,0 -0.9,-4.2 -0.9,-4.2c0,0 0.1,4.1 -0.2,4.1c-0.3,0 -0.6,-4.5 -0.6,-4.5c0,0 -1,4.3 -1.3,4.3c-0.3,0 -1,-3.2 -1,-3.2c0,0 0.4,3.4 -0.2,3.4c-0.6,0 -0.6,-1.6 -0.6,-1.6c0,0 -0.4,1 -0.8,1c-0.3,0 -0.7,-3.6 -0.7,-3.6c0,0 -0.1,2.9 -0.7,2.9c-0.6,0 -1.2,-6 -1.2,-6c0,0 -0.6,6.1 -1.2,6.2c-0.7,0 -0.9,-2.8 -0.9,-2.8c0,0 -0.4,3.7 -0.9,3.7c-0.5,0 -0.7,-6.8 -0.7,-6.8c0,0 -0.5,4.5 -1,4.5c-0.5,0 -0.7,-4.7 -0.7,-4.7c0,0 -0.3,6.2 -0.7,6.2c-0.4,0 -1.3,-11.7 -1.3,-11.7c0,0 0,13.4 -0.4,13.4c-0.4,0 -1,-5.6 -1,-5.6c0,0 -0.4,4 -0.7,4c-0.3,0 -0.9,-5.2 -0.9,-5.2c0,0 -0.5,6 -1.3,6c-0.8,0 -1.3,-5.4 -1.3,-5.4c0,0 -0.4,4.6 -1,5.5l0,-21.6c0.2,0.1 0.6,0.2 1.1,0.3c0.4,0.1 0.8,0.3 1.3,0.4c0.4,0.1 0.8,0.3 1.3,0.4c0.4,0.1 0.9,0.2 1.4,0.4c0.4,0.1 0.9,0.3 1.3,0.4c0.4,0.1 0.8,0.3 1.3,0.5c0.4,0.1 0.9,0.3 1.3,0.5c0.4,0.1 0.9,0.3 1.3,0.5c0.4,0.2 0.9,0.3 1.3,0.5c0.4,0.2 0.9,0.3 1.3,0.5c0.4,0.2 0.9,0.3 1.3,0.5c0.4,0.2 0.9,0.3 1.3,0.5c0.4,0.2 0.9,0.3 1.3,0.4c0.4,0.2 0.9,0.3 1.3,0.5c0.4,0.2 0.8,0.4 1.3,0.5c0.4,0.2 0.9,0.3 1.3,0.5c0.4,0.2 0.9,0.4 1.3,0.5c0.4,0.2 0.8,0.4 1.3,0.6c0.4,0.2 0.9,0.4 1.3,0.5c0.4,0.2 0.8,0.4 1.3,0.6c0.4,0.2 0.8,0.4 1.2,0.7c0.4,0.2 0.9,0.3 1.3,0.5c0.4,0.2 0.8,0.5 1.2,0.7c0.4,0.2 0.9,0.4 1.2,0.6c0.4,0.2 0.8,0.5 1.2,0.7c0.3,0.2 0.6,0.4 0.9,0.5c0.1,0.3 0.2,3.8 -0.5,6.2Z" style="fill:#fff;fill-rule:nonzero;"/></g><path d="M34.7,105l-0.2,-0.2l-0.5,-0.6l-0.2,-0.2l-0.3,-0.4l-0.2,-0.2l-0.1,-0.1l-0.2,-0.2l-0.2,-0.1l-0.2,0l-0.1,0l-0.2,0.1l-0.3,0.2l-0.4,0.2l-0.3,0.1l-0.3,0.1l-0.3,0.1l-0.5,0.2l-0.3,0.1l-0.2,0l-0.3,0.1l-0.4,0l-0.5,0l-0.3,-0.1l-0.2,-0.1l-0.3,-0.1l-0.4,-0.2l-0.3,-0.2l-0.4,-0.3l-0.2,-0.2l-0.3,-0.4l-0.2,-0.3l-0.1,-0.3l-0.1,-0.3l-0.1,-0.4l0,-0.3l0,-0.5l0,-0.3l0,-0.6l0,-0.3l0.1,-0.3l0.1,-0.3l0.1,-0.3l0.1,-0.3l0.1,-0.3l0.2,-0.3l0.2,-0.3l0.1,-0.1l0.3,-0.2l0.4,-0.2l0.3,-0.1l0.3,-0.1l0.4,-0.1l0.3,-0.1l1.2,0l0.3,0.1l0.4,0.1l0.3,0.1l0.4,0.2l0.3,0.1l0.4,0.3l0.2,0.1l0.2,0l0.1,-0.1l0.2,-0.2l0.4,0l0.2,-0.2l0.3,-0.4l0.2,-0.2l0.2,-0.2l0.2,-0.2l0.2,-0.2l0.2,-0.2l0.1,-0.2l0,-0.2l0,-0.2l-0.1,-0.1l-0.1,-0.1l-0.2,-0.2l-0.6,-0.4l-0.5,-0.3l-0.3,-0.2l-0.4,-0.3l-0.3,-0.1l-0.7,-0.1l-0.4,-0.1l-0.3,-0.1l-0.7,0l-0.4,0l-0.3,0l-0.4,0l-0.6,0l-0.3,0l-0.3,0.1l-0.7,0.2l-0.3,0.1l-0.3,0.1l-0.6,0.3l-0.3,0.2l-0.3,0.2l-0.6,0.4l-0.2,0.2l-0.4,0.1l-0.2,0.2l-0.2,0.3l-0.2,0.3l-0.2,0.3l-0.2,0.2l-0.2,0.3l-0.2,0.3l-0.1,0.3l-0.1,0.3l-0.1,0.4l-0.1,0.3l-0.1,0.3l-0.1,0.2l-0.1,0.4l-0.1,0.3l0,2.6l0.2,0.6l0.1,0.4l0.3,0.8l0.2,0.4l0.1,0.3l0.8,1.2l0.2,0.2l0.5,0.4l0.6,0.4l0.2,0.2l0.4,0.2l0.3,0.1l0.4,0.2l0.9,0.2l0.9,0.3l2.4,0l0.7,-0.1l0.5,-0.1l0.3,-0.1l0.3,-0.1l0.3,-0.1l0.4,-0.2l0.3,-0.1l0.4,-0.2l0.2,-0.2l0.4,-0.3l0.2,-0.2l0.3,-0.3l0.2,-0.2l0,-0.1l-0.1,-0.3Zm-17.5,-4l-0.1,-0.1l-0.5,-0.1l-0.2,0l-0.2,0l-0.9,0.1l-0.2,0l-0.9,-0.1l-0.7,0.1l-0.2,0l-0.7,0l-0.1,0l-0.1,-0.1l0,-0.1l0,-0.1l0,-0.3l0,-0.2l0,-0.3l0,-0.2l0,-0.1l2,0l1,-0.1l0.2,0l0.6,0.1l0.4,0l0.1,-0.1l0.1,-0.1l0,-0.2l0,-0.4l0,-0.3l0,-0.4l0,-0.2l0,-0.2l0,-0.1l0,-0.1l-0.1,-0.1l-0.1,0l-0.4,0l-1.4,0.1l-1.2,0l-0.4,0l-0.4,0l-0.1,0l-0.1,-0.1l0,-0.1l0,-0.1l0,-0.2l0,-0.2l0,-0.3l0,-0.1l0,-0.1l0.1,-0.1l4.4,0l-0.1,-0.1l0,-0.1l0,-0.2l0,-0.2l0,-0.3l0,-0.2l0,-0.3l0,-0.3l0,-0.2l0,-0.1l-0.1,-0.1l-0.2,0l-0.3,0l-0.4,0l-0.2,0l-1.7,0l-0.2,0l-0.8,0l-0.2,0l-0.8,-0.1l-0.1,0l-0.8,0l-0.8,-0.1l-0.2,0l-0.1,0l0,3.2l-0.1,0.5l0,3.8l-0.1,0.7l0,1.1l0.1,0.1l0.6,0l1.1,-0.1l0.3,0l0.7,0.1l1.1,0l0.7,-0.1l0.2,0l0.7,0.1l0.2,0l1.6,-0.1l0.1,-0.1l0.1,-0.1l0,-0.1l0.1,-0.7l0,-0.2l0,-0.7l-0.3,-0.2Zm-17.2,1.9l0.2,0.1l0.5,0.1l3.8,0l0.8,-0.1l0.2,0l0.2,-0.1l0.2,-0.1l0.3,-0.1l0.2,-0.1l0.3,-0.1l0.2,-0.1l0.2,-0.2l0.2,-0.1l0.3,-0.3l0.2,-0.2l0.1,-0.1l0.2,-0.2l-0.1,-0.3l0.1,-0.3l0.1,-0.2l0.1,-0.2l0.1,-0.2l0.1,-0.2l0.1,-0.2l0.1,-0.3l0,-0.2l0,-0.3l0,-0.2l0,-0.2l0,-0.2l0,-0.3l0,-0.2l0,-0.2l0,-0.2l-0.1,-0.3l-0.1,-0.2l-0.1,-0.2l-0.1,-0.2l-0.1,-0.2l-0.1,-0.2l-0.1,-0.2l0,-0.2l-0.1,-0.1l-0.1,-0.1l-0.3,-0.3l-0.2,-0.2l-0.2,-0.1l-0.4,-0.3l-0.2,-0.1l-0.2,-0.1l-0.2,-0.1l-0.5,-0.2l-0.2,-0.1l-0.2,0l-0.2,0l-0.2,0l-0.4,0l-0.3,0l-0.2,0l-0.2,0l-0.5,0l-0.3,0l-0.1,0l-0.6,0l-0.2,0l-1.1,0l-0.2,0l-0.2,0l-0.2,0l-0.1,0l-0.1,0.1l0,2.8l-0.1,0.6l0,5.4Zm2.6,-6.4l0,-0.1l0,-0.2l0.1,-0.1l2.1,0l0.2,0.1l0.3,0.2l0.2,0.1l0.3,0.3l0.2,0.3l0,0.3l0.1,0.2l0,1.4l-0.1,0.2l0,0.2l-0.1,0.2l-0.1,0.2l-0.2,0.2l-0.1,0.2l-0.2,0.2l-0.2,0.1l-0.1,0.1l-0.2,0.1l-0.2,0.1l-0.2,0l-0.3,0l-1.2,0.1l-0.2,0l-0.1,-0.1l-0.1,-0.1l0,-0.3l0,-0.2l0,-0.3l0,-0.2l0,-0.3l0,-0.2l0,-0.2l0,-0.6l0,-0.3l0,-0.2l0,-0.2l0,-0.2l0,-0.3l0,-0.2l0,-0.4l0.1,-0.1Zm-2.6,10.6l17.3,0l0,-1.1l-17.3,0l0,1.1Zm47.9,-3.1l-0.1,-0.1l-0.1,-0.1l-0.7,-0.1l-0.3,0l-0.3,0l-1.4,0.1l-0.3,0l-1.4,-0.1l-1,0.1l-0.3,0l-1.1,0l-0.2,0l-0.1,-0.1l-0.1,-0.1l0,-0.2l0,-0.4l0,-0.3l0.1,-0.5l0,-0.3l0.1,-0.1l0.1,-0.1l0.5,0l0.8,0.1l1.5,0l1.6,-0.1l0.3,0l0.9,0.1l0.6,0l0.1,-0.1l0.1,-0.1l0,-0.2l0,-0.6l0,-0.4l0,-0.6l0,-0.3l0,-0.3l0,-0.2l-0.1,-0.1l-0.1,-0.4l-0.2,0l-0.6,0l-2.2,0l-1.8,0l-0.6,0l-0.6,0l-0.2,-0.1l-0.1,-0.1l0,-0.1l0,-0.2l0,-0.3l0,-0.3l0,-0.5l0,-0.2l0,-0.1l0.1,-0.1l0.7,0l0.9,0.1l5.1,0l0.1,-0.1l0.1,-0.1l0,-0.2l0,-0.3l0,-0.3l0,-0.5l0,-0.3l0,-0.5l0,-0.5l0,-0.3l0,-0.1l-0.1,-0.1l-0.4,-0.3l-0.5,0l-0.7,0.1l-0.3,0l-2.6,0l-0.3,0l-1.2,0.1l-0.3,0l-1.2,-0.1l-0.3,0l-1.2,0l-1.3,-0.1l-0.3,0l-0.2,0l-0.1,0.1l-0.1,0.2l0,0.3l-0.1,1l0,1.7l0.1,1l0,0.3l-0.1,1l0,3l0.1,1l0,1.6l-0.1,1l0,1.5l0.2,0.2l0.9,0l1.7,-0.1l0.3,0l1,0.1l1.6,0l1,-0.1l0.3,0l1,0.1l0.3,0l2.5,-0.1l0.1,-0.1l0.1,-0.1l0,-0.2l0.1,-1l0,-0.3l-0.1,-1.1l0.4,0Zm57.9,1.6l0,-0.3l0,-1.1l0,-0.2l-0.1,-0.1l-0.1,-0.1l-0.2,-0.1l-0.3,0l-0.3,0l-0.7,0.1l-0.3,0l-2.8,0l-0.3,0l-0.6,0l-0.7,0l-0.2,0l-0.1,-0.1l0,-0.1l0,-0.1l0,-0.2l0.1,-2.6l0,-0.3l-0.1,-1.1l0,-0.3l0,-1.1l0,-0.3l0.1,-1.1l0,-0.3l0,-1.1l0,-1.7l-0.2,-0.2l-0.1,-0.1l-0.2,0l-1.4,0l-0.3,0l-1,-0.1l-0.3,0l-0.2,0l-0.2,0l-0.1,0.1l-0.1,0.1l-0.1,0.3l0,4.1l0.1,2.4l0,4.3l0.1,1l0,0.3l-0.1,0.7l0,0.5l0.2,0.2l0.8,0l0.9,-0.1l1.4,0l1.1,0.1l1.7,-0.1l1.5,0l2.2,0.1l0.7,0l0.1,-0.1l0.1,-0.1l0.1,-0.2l0,-0.2l0,-0.3l-0.1,-0.5Zm-13.1,-1.6l-0.1,-0.1l-0.1,-0.1l-0.7,-0.1l-0.3,0l-0.3,0l-1.4,0.1l-0.3,0l-1.4,-0.1l-1,0.1l-0.3,0l-1.1,0l-0.2,0l-0.1,-0.1l-0.1,-0.1l0,-0.2l0,-0.4l0,-0.3l0.1,-0.5l0,-0.3l0.1,-0.1l0.1,-0.1l0.5,0l0.8,0.1l1.5,0l1.6,-0.1l0.3,0l0.9,0.1l0.6,0l0.1,-0.1l0.1,-0.1l0,-0.2l0,-0.6l0,-0.4l0,-0.6l0,-0.3l0,-0.3l0,-0.2l-0.1,-0.1l-0.1,-0.1l-0.2,0l-0.6,0l-2.2,0.1l-1.8,0l-0.6,0l-0.6,0l-0.2,-0.1l-0.1,-0.1l0,-0.1l0,-0.2l0,-0.3l0,-0.3l0,-0.5l0,-0.2l0,-0.1l0.1,-0.1l0.7,0l0.9,0.1l5,0l0.1,-0.1l0.1,-0.1l0,-0.2l0,-0.3l0,-0.3l0,-0.5l0,-0.3l0,-0.5l0,-0.5l0,-0.3l0,-0.1l-0.1,-0.1l-0.3,-0.7l-0.5,0l-0.7,0.1l-0.3,0l-2.6,0l-0.3,0l-1.2,0.1l-0.3,0l-1.2,-0.1l-0.3,0l-1.2,0l-1.2,-0.1l-0.3,0l-0.2,0l-0.1,0.1l-0.1,0.2l0,0.3l-0.1,1l0,1.7l0.1,1l0,0.3l-0.1,1l0,3l0.1,1l0,1.6l-0.1,1l0,1.5l0.2,0.2l0.9,0l1.7,-0.1l0.3,0l1,0.1l1.8,0l1,-0.1l0.3,0l1,0.1l0.3,0l2.5,-0.1l0.1,-0.1l0.1,-0.1l0,-0.2l0.1,-1l0,-0.3l-0.1,-1.1l0.1,0Zm-29.6,-9.1l0,-0.4l0,-0.3l0,-0.6l0,-0.2l-0.2,-0.1l-0.3,-0.1l-0.3,0l-0.3,0l-0.8,0.1l-0.2,0l-1,-0.1l-0.4,0l-0.3,0.1l-0.2,0.2l-0.1,0.3l0,0.5l0.1,0.8l0,3.3l-0.1,1.2l0,0.3l0.1,1.2l0,0.3l-0.1,0.6l-0.1,0.3l-0.1,0.3l-0.1,0.3l-0.2,0.4l-0.2,0.2l-0.3,0.3l-0.3,0.2l-0.4,0.2l-0.3,0.1l-0.5,0.1l-0.3,0l-0.5,0l-0.3,-0.1l-0.4,-0.2l-0.3,-0.2l-0.3,-0.3l-0.2,-0.2l-0.2,-0.4l-0.1,-0.3l-0.1,-0.4l-0.1,-0.3l0,-0.5l0,-0.3l0,-1.2l0,-0.3l0.1,-1.2l0,-0.3l0,-1.2l0,-0.3l-0.1,-1.2l0,-0.3l0,-0.8l0,-0.3l0,-0.3l-0.1,-0.3l-0.2,-0.2l-0.3,-0.1l-0.4,0l-0.3,0l-0.6,0l-0.3,0l-0.5,-0.2l-0.6,0l-0.3,0.1l-0.1,0.2l-0.1,0.3l0,3l-0.1,1.2l0,1.8l-0.1,1.2l0,1.3l0.1,0.3l0.1,0.4l0.4,1.2l0.4,0.6l0.3,0.5l0.7,0.7l0.5,0.4l0.6,0.4l0.4,0.2l0.3,0.1l0.2,0.1l0.3,0.1l0.2,0l0.3,0.1l1.1,0.1l2.2,0l0.3,-0.1l0.4,-0.1l0.3,-0.1l0.4,-0.2l0.3,-0.1l0.4,-0.2l0.3,-0.1l0.4,-0.2l0.3,-0.2l0.4,-0.3l0.3,-0.2l0.2,-0.3l0.2,-0.3l0.3,-0.4l0.1,-0.3l0.2,-0.4l0.1,-0.3l0.2,-0.4l0.1,-0.3l0.1,-0.4l0.1,-0.3l0.1,-0.5l0,-0.3l0,-0.4l0,-0.3l0,-0.6l-0.3,-0.6l0.1,-1.2l0,-0.3l0,-1.2l0,-0.3l-0.1,-1.2l0,-0.3l0.1,0Zm16.5,-1.8l-0.2,-0.1l-0.4,0l-0.9,0.1l-1.2,0l-0.5,0l-0.3,0l-0.1,0l-0.2,0l-0.1,0.1l-0.2,0.3l-0.1,0.3l-0.2,0.7l-0.2,0.3l-0.5,1l-0.1,0.3l-0.3,1.1l-0.1,0.3l-0.5,1.2l-0.1,0.3l-0.3,1.3l-0.1,0.3l-0.5,1.2l-0.1,0.2l-0.2,0.1l-0.1,-0.1l-0.1,-0.2l-0.5,-1.6l-0.4,-1.2l-0.1,-0.3l-0.4,-1.2l-0.1,-0.3l-0.4,-1l-0.1,-0.4l-0.5,-1l-0.1,-0.3l-0.2,-0.6l-0.1,-0.3l-0.1,-0.2l-0.1,-0.2l-0.2,0l-0.3,0l-1.2,-0.1l-0.9,0l-0.8,-0.1l-0.3,0l-0.1,0l-0.2,0.1l-0.1,0.1l-0.1,0.2l0,0.3l0.1,0.2l0.1,0.3l0.4,0.6l0.1,0.3l0.3,1.1l0.1,0.3l0.5,1l0.1,0.3l0.4,1l0.1,0.3l0.5,1.1l0.1,0.3l0.5,1l0.1,0.3l0.3,1.1l0.1,0.3l0.4,1l0.1,0.3l0.5,1.1l0.1,0.3l0.4,1l0.1,0.2l0.1,0.1l0.6,0l1.1,-0.1l1.9,0l0.1,-0.1l0.1,-0.2l0.4,-1l0.1,-0.3l0.5,-1l0.1,-0.3l0.4,-1l0.1,-0.3l0.5,-1l0.1,-0.3l0.4,-1l0.1,-0.3l0.4,-1l0.1,-0.3l0.3,-1.1l0.1,-0.3l0.5,-1l0.1,-0.3l0.3,-1.1l0.1,-0.3l0.3,-0.5l0.1,-0.3l0.1,-0.2l0.1,-0.3l-0.1,-0.2l0.5,-0.3Z" style="fill:#222221;fill-rule:nonzero;"/></svg>