<svg xmlns="http://www.w3.org/2000/svg" viewBox="0 0 95.33 50.85"><defs><style>.cls-1{fill:#e22127;}</style></defs><title>Asset 42</title><g id="Layer_2" data-name="Layer 2"><g id="Layer_23" data-name="Layer 23"><path class="cls-1" d="M47.46,42.11c5,0,7.94-3.31,7.94-8.14s-3-8.14-7.94-8.14S39.51,29.13,39.51,34s3,8.14,7.95,8.14M30.37,0H40.3V21.32h.13c2.25-3.11,6.1-4.23,10.2-4.23,9.14,0,14.7,8.21,14.7,17.15C65.33,44,59,50.85,49.51,50.85a12.47,12.47,0,0,1-9.87-5h-.13v4.25H30.37ZM18.77,34c0-3.73-2.48-6-6.11-6s-6.11,2.23-6.11,6S9,40,12.66,40s6.11-2.23,6.11-6M0,34c0-7.45,5-13.41,12.66-13.41s12.67,6,12.67,13.41-5,13.41-12.67,13.41S0,41.49,0,34m84.16-2.61c0,2.28.2,7.35,3.48,7.35,1.78,0,2.63-1.89,2.63-3.52,0-2.93-1.54-5.66-4.53-5.66H84.16ZM91.7,29.6v.1c2.59,1.64,3.63,4.62,3.63,7.66,0,4.51-2.58,8.59-7.45,8.59-8.35,0-8.49-10.13-8.49-16.34-2.64,0-4.32,2.19-4.32,4.76A8,8,0,0,0,78,40.42l-4.07,4A15.53,15.53,0,0,1,70,33.77c0-8.69,4.42-11,12.46-11H94.73V29.6Z"/></g></g></svg>